<?xml version="1.0" encoding="utf-8"?>
<svg viewBox="-382.574 -10.41 1084.839 755.604" xmlns="http://www.w3.org/2000/svg">
  <path d="M344.69391,661.25125l-8.38722-33.073A429.46111,429.46111,0,0,0,290.74208,611.834l-1.05792,15.37062L285.39,610.2712c-19.202-5.482-32.265-7.89648-32.265-7.89648s17.64872,67.09731,54.6606,118.39272l43.124,7.57249-33.50125,4.83219A173.75069,173.75069,0,0,0,332.395,749.05228c53.84043,49.96979,113.80669,72.89422,133.93843,51.20309s-7.1946-79.78376-61.035-129.75355c-16.69106-15.49113-37.65818-27.92221-58.646-37.70546Z" transform="matrix(1, 0, 0, 1, -248, -77.40283203125)" fill="#f49e0b"/>
  <path d="M424.44317,625.32976l9.91563-32.64732a429.46451,429.46451,0,0,0-30.557-37.54385L394.9511,567.7497l5.07688-16.71545c-13.60408-14.61837-23.53857-23.43755-23.53857-23.43755s-19.57459,66.561-14.40543,129.60362l33.00186,28.77326L363.9095,672.79331a173.75138,173.75138,0,0,0,4.62073,21.34072c20.26038,70.60659,59.74453,121.22757,88.19038,113.06511s35.08143-72.01738,14.821-142.624c-6.28092-21.88874-17.80407-43.36822-30.71362-62.59176Z" transform="matrix(1, 0, 0, 1, -248, -77.40283203125)" fill="#f49e0b"/>
  <ellipse cx="352" cy="727.19433" rx="352" ry="18" fill="#3f3d56" transform="matrix(1, 0, 0, 1, 0, 1.4210854715202004e-14)"/>
  <path d="M805.65354,250.35009h-3.99878V140.80476a63.40186,63.40186,0,0,0-63.40205-63.40193H506.16627a63.40186,63.40186,0,0,0-63.402,63.40193V741.77894a63.40186,63.40186,0,0,0,63.402,63.40193H738.25271a63.40186,63.40186,0,0,0,63.40205-63.40193V328.32631h3.99878Z" transform="matrix(1, 0, 0, 1, -248, -77.40283203125)" fill="#3f3d56"/>
  <path d="M 788.16 141.247 L 788.16 741.337 C 788.16 767.488 766.961 788.687 740.81 788.687 L 507.61 788.687 C 481.459 788.687 460.26 767.488 460.26 741.337 L 460.26 141.247 C 460.26 115.096 481.459 93.897 507.61 93.897 L 535.9 93.897 C 529.879 108.692 540.757 124.875 556.73 124.887 L 494.499 150.045 C 510.472 150.033 524.82 108.691 518.8 93.897 L 740.81 93.897 C 766.961 93.897 788.16 115.096 788.16 141.247 Z" transform="matrix(1, 0, 0, 1, -248, -77.40283203125)" fill="#fff"/>
  <path d="M788.16,612.40716v128.93a47.3508,47.3508,0,0,1-47.35,47.35H507.61a47.35084,47.35084,0,0,1-47.35-47.35v-116.36a222.97136,222.97136,0,0,1,327.9-12.57Z" transform="matrix(1, 0, 0, 1, -248, -77.40283203125)" fill="#e6e6e6"/>
  <polygon points="322.174 511.167 312.75 511.167 315.891 327.064 319.033 327.064 322.174 511.167" fill="#e6e6e6" transform="matrix(1, 0, 0, 1, 0, 1.4210854715202004e-14)"/>
  <path d="M578.02779,288.5586l15.21367-23.512a352.49687,352.49687,0,0,0-15.60827-36.53743l-9.83764,7.94573,7.78946-12.03815c-7.42343-14.61275-13.26462-23.81956-13.26462-23.81956s-30.5115,48.08118-40.70521,98.98824l19.52266,30.17145L519.5254,312.3006a142.61,142.61,0,0,0-1.18572,17.8826c0,60.291,19.69081,109.16642,43.98071,109.16642s43.98072-48.87547,43.98072-109.16642c0-18.69079-4.22846-38.24546-10.0614-56.33418Z" transform="matrix(1, 0, 0, 1, -248, -77.40283203125)" fill="#e6e6e6"/>
  <polygon points="267.479 524.167 262.908 524.167 264.432 434.879 265.955 434.879 267.479 524.167" fill="#e6e6e6" transform="matrix(1, 0, 0, 1, 0, 1.4210854715202004e-14)"/>
  <path d="M519.28775,456.06773l7.37846-11.40307a170.95723,170.95723,0,0,0-7.56983-17.72025l-4.77115,3.85359,3.7778-5.83837c-3.60028-7.087-6.43319-11.55223-6.43319-11.55223s-14.79775,23.31885-19.74158,48.00821l9.46827,14.63282-10.48179-8.46609a69.16528,69.16528,0,0,0-.57506,8.67286c0,29.24044,9.54982,52.94451,21.33016,52.94451S533,505.49564,533,476.2552c0-9.06483-2.05076-18.54863-4.87967-27.32146Z" transform="matrix(1, 0, 0, 1, -248, -77.40283203125)" fill="#e6e6e6"/>
  <polygon points="386.479 524.167 381.908 524.167 383.432 434.879 384.955 434.879 386.479 524.167" fill="#e6e6e6" transform="matrix(1, 0, 0, 1, 0, 1.4210854715202004e-14)"/>
  <path d="M638.28775,456.06773l7.37846-11.40307a170.95723,170.95723,0,0,0-7.56983-17.72025l-4.77115,3.85359,3.7778-5.83837c-3.60028-7.087-6.43319-11.55223-6.43319-11.55223s-14.79775,23.31885-19.74158,48.00821l9.46827,14.63282-10.48179-8.46609a69.16528,69.16528,0,0,0-.57506,8.67286c0,29.24044,9.54982,52.94451,21.33016,52.94451S652,505.49564,652,476.2552c0-9.06483-2.05076-18.54863-4.87967-27.32146Z" transform="matrix(1, 0, 0, 1, -248, -77.40283203125)" fill="#e6e6e6"/>
  <circle cx="264" cy="186.19433" r="42" fill="#e6e6e6" transform="matrix(1, 0, 0, 1, 0, 1.4210854715202004e-14)"/>
  <polygon points="415.872 234.173 492.533 236.077 502.852 144.666 415.872 144.666 415.872 234.173" fill="#2f2e41" transform="matrix(1, 0, 0, 1, 0, 1.4210854715202004e-14)"/>
  <path d="M644.76993,239.9612l-21.14671-81.078s5.84211-38.92023,19.97409-38.27814-3.66865,38.049-3.66865,38.049l23.94311,70.03766Z" transform="matrix(1, 0, 0, 1, -248, -77.40283203125)" fill="#ffb8b8"/>
  <path d="M686.22412,443.10875l3.31146,33.11459s-104.311,71.19639-104.311,100.99953-3.31146,124.17974-3.31146,124.17974l38.08179,1.65573,3.31146-44.70471s8.27865-49.67189,3.31146-67.88492l54.63908-41.39325s-16.5573,19.86876-13.24584,54.63909S663.0439,706.3698,663.0439,706.3698l39.73752,3.31146s4.96719-36.42606,6.62292-39.73752,9.93438-62.91773,1.65573-79.475l67.88493-79.475s23.18022-29.80314,0-59.60627l-13.24584-6.62292Z" transform="matrix(1, 0, 0, 1, -248, -77.40283203125)" fill="#2f2e41"/>
  <path d="M583.56887,694.77969l-3.31146,21.52449-21.52449,51.32763s-36.42606,18.213-9.93438,21.52449,36.42606-3.31146,41.39325-11.59011,14.90157-21.52449,14.90157-21.52449L603.43763,790.812h8.27865l13.56912-47.49194a29.95239,29.95239,0,0,0-5.09327-26.76756q-.09786-.12417-.1972-.24835c-6.62292-8.27865-3.31146-19.86876-3.31146-19.86876Z" transform="matrix(1, 0, 0, 1, -248, -77.40283203125)" fill="#2f2e41"/>
  <path d="M666.35536,694.77969l-3.31146,21.52449-21.52449,51.32763s-36.42605,18.213-9.93437,21.52449,36.426-3.31146,41.39324-11.59011,14.90157-21.52449,14.90157-21.52449L686.22412,790.812h8.27865l13.56913-47.49194a29.95239,29.95239,0,0,0-5.09328-26.76756q-.09786-.12417-.1972-.24835c-6.62292-8.27865-3.31146-19.86876-3.31146-19.86876Z" transform="matrix(1, 0, 0, 1, -248, -77.40283203125)" fill="#2f2e41"/>
  <circle cx="458.09288" cy="162.05113" r="33.1146" fill="#ffb8b8" transform="matrix(1, 0, 0, 1, 0, 1.4210854715202004e-14)"/>
  <path d="M704.43715,267.60138l14.90157,34.77032,29.80314-23.18022s-18.213-24.83594-18.213-28.1474Z" transform="matrix(1, 0, 0, 1, -248, -77.40283203125)" fill="#ffb8b8"/>
  <path d="M707.74861,287.47013l7.06394,4.34051s22.82273-12.10094,28.576-20.6387c0,0,20.65486-6.882,28.93351,9.67527s-4.96719,130.80267-4.96719,130.80267,8.27865,11.59011,6.62292,16.5573S778.945,441.453,778.945,441.453v9.93438s-94.37661,1.65573-94.37661-6.62292V418.2728l-9.93438-3.31146s-9.93438,21.52449-13.24584,19.86876-19.86876-14.90157-19.86876-14.90157,26.49168-87.75369,41.39325-102.65526l18.213-31.45887Z" transform="matrix(1, 0, 0, 1, -248, -77.40283203125)" fill="#f49e0b"/>
  <path d="M704.43715,289.12586s-3.31146-6.62292-8.27865-8.27865-29.80314-36.42605-29.80314-36.42605l3.31146-18.213-33.1146-4.96719s1.65573,18.213,8.27865,29.80314,43.049,71.19638,43.049,71.19638l18.213-33.1146Z" transform="matrix(1, 0, 0, 1, -248, -77.40283203125)" fill="#f49e0b"/>
  <path d="M730.101,420.75639l-19.86875,59.60628s-41.39325,46.36044-18.213,46.36044,34.77032-41.39325,34.77032-41.39325l28.14741-59.60628Z" transform="matrix(1, 0, 0, 1, -248, -77.40283203125)" fill="#ffb8b8"/>
  <path d="M666.40465,239.938c26.52245-10.63018,52.66949-12.89779,78.1352,0V218.51138A13.95535,13.95535,0,0,0,730.58449,204.556H677.42954a11.02489,11.02489,0,0,0-11.02489,11.02489Z" transform="matrix(1, 0, 0, 1, -248, -77.40283203125)" fill="#2f2e41"/>
  <path d="M750.79759,285.8144s15.10671-12.79586,23.28279,1.88072,3.20889,77.59432,1.55316,85.873-13.24584,59.60628-13.24584,59.60628l-39.73752-8.27865s-3.31146-23.18022,6.62292-21.52449Z" transform="matrix(1, 0, 0, 1, -248, -77.40283203125)" fill="#f49e0b"/>
  <path d="M767.27813,271.58657c-7.47508-4.10485-10.95384-13.3183-11.20173-21.8427-.24822-8.5244,1.81928-16.96078,1.98174-25.48727a19.70066,19.70066,0,0,0-.44217-5.19738,19.99152,19.99152,0,0,0-2.85872-5.91734c-9.72073-14.89484-26.61815-25.37235-44.41647-25.53721a19.72685,19.72685,0,0,0-7.51573,1.38171c-1.84014.737-2.44183.64676-2.79446,2.90614a18.80778,18.80778,0,0,0-12.90778.41044,43.67006,43.67006,0,0,0-11.28781,6.72245,50.91134,50.91134,0,0,0-5.707,4.94121c-9.4059,9.74414-11.57188,24.76187-8.847,38.02816.88586,4.313-3.3647,8.47684-6.88166,11.12594s-7.57824,5.08173-9.3054,9.132c-1.66117,3.89607-.74885,8.35188-1.08333,12.57414a21.50585,21.50585,0,0,1-13.71993,18.06931,6.619,6.619,0,0,0,6.38589,2.24579,15.71689,15.71689,0,0,0,6.65437-3.168,39.58173,39.58173,0,0,0,14.7562-21.89461c1.03307,4.69842.63244,9.54449.59442,14.355a40.097,40.097,0,0,1-2.90746,15.67932,22.95849,22.95849,0,0,1-10.57045,11.63912c4.6135,2.25911,9.69783.62172,13.60738-2.71074,3.90938-3.33246,6.21789-8.16974,7.83049-13.047a65.02715,65.02715,0,0,0,3.1334-24.67964A35.23865,35.23865,0,0,1,674.197,295.3399a36.73,36.73,0,0,1-12.45807,21.62429,71.55883,71.55883,0,0,0,32.75215-8.24838,18.53725,18.53725,0,0,0,6.71768-5.17351c3.251-4.50991,2.48187-10.6609,1.57006-16.14519-.72122-4.3364,4.69775-10.60546,1.5945-13.71918a5.14429,5.14429,0,0,0-3.44914-1.48246c-9.45259-.91006-18.20527-5.65746-23.25035-13.70275-3.53538-5.63781-5.87629-12.07592-5.87629-18.09738a32.93149,32.93149,0,1,1,64.38483,9.77247,66.08219,66.08219,0,0,0-2.39716,11.16014,87.6848,87.6848,0,0,1-2.6728,12.98267c-2.34787,8.17535-6.32542,16.51719-13.68526,20.7814,2.47315,1.35348,5.33556,1.41445,8.13766,1.72322,9.23506,1.01758,18.9478.79289,27.30655-3.26312C761.2304,289.496,767.87372,280.85839,767.27813,271.58657Z" transform="matrix(1, 0, 0, 1, -248, -77.40283203125)" fill="#2f2e41"/>
  <polygon points="490.38 252.288 481.739 323.422 482.101 255.6 490.38 252.288" opacity="0.2" transform="matrix(1, 0, 0, 1, 0, 1.4210854715202004e-14)"/>
  <polygon points="518.772 336.291 515.216 358.255 523.494 361.567 518.772 336.291" opacity="0.2" transform="matrix(1, 0, 0, 1, 0, 1.4210854715202004e-14)"/>
  <path d="M 331.575 187.82 L 260.861 187.82 C 238.295 187.794 220.008 169.507 219.983 146.941 L 219.983 64.969 C 220.008 42.404 238.295 24.117 260.861 24.091 L 331.575 24.091 C 354.142 24.117 372.429 42.404 372.454 64.969 L 372.454 146.941 C 372.429 169.507 354.142 187.794 331.575 187.82 Z" fill="#fff" style="" transform="matrix(1, 0, 0, 1, 0, 1.4210854715202004e-14)"/>
  <path d="M 331.575 189.103 L 260.861 189.103 C 237.587 189.076 218.727 170.215 218.7 146.941 L 218.7 64.969 C 218.727 41.695 237.587 22.834 260.861 22.809 L 331.575 22.809 C 354.851 22.834 373.71 41.695 373.737 64.969 L 373.737 146.941 C 373.71 170.215 354.851 189.076 331.575 189.103 Z M 260.861 25.374 C 239.003 25.399 221.29 43.112 221.265 64.969 L 221.265 146.941 C 221.29 168.798 239.003 186.511 260.861 186.537 L 331.575 186.537 C 353.434 186.511 371.147 168.798 371.172 146.941 L 371.172 64.969 C 371.146 43.112 353.433 25.399 331.575 25.374 L 260.861 25.374 Z" fill="#ccc" style="" transform="matrix(1, 0, 0, 1, 0, 1.4210854715202004e-14)"/>
  <circle cx="371.812" cy="354.169" r="34.563" fill="#f49e0b" style="" transform="matrix(1, 0, 0, 1, 0, 1.4210854715202004e-14)"/>
  <circle cx="263.154" cy="73.141" r="21.564" fill="#2f2e41" style="" transform="matrix(1, 0, 0, 1, 0, 1.4210854715202004e-14)"/>
  <circle cx="263.154" cy="136.77" r="21.564" fill="#2f2e41" style="" transform="matrix(1, 0, 0, 1, 0, 1.4210854715202004e-14)"/>
  <circle cx="329.282" cy="102.57" r="21.564" fill="#2f2e41" style="" transform="matrix(1, 0, 0, 1, 0, 1.4210854715202004e-14)"/>
  <circle cx="263.154" cy="72.141" r="7.547" fill="#b3b3b3" style="" transform="matrix(1, 0, 0, 1, 0, 1.4210854715202004e-14)"/>
  <path d="M 263.154 81.971 C 256.357 81.971 252.108 74.613 255.507 68.726 C 258.906 62.839 267.403 62.839 270.801 68.726 C 271.576 70.069 271.985 71.59 271.985 73.141 C 271.979 78.016 268.029 81.966 263.154 81.971 Z M 263.154 66.876 C 258.332 66.876 255.318 72.097 257.729 76.274 C 260.14 80.449 266.169 80.449 268.579 76.274 C 269.13 75.321 269.419 74.241 269.419 73.141 C 269.416 69.683 266.613 66.88 263.154 66.876 Z" fill="#e6e6e6" style="" transform="matrix(1, 0, 0, 1, 0, 1.4210854715202004e-14)"/>
  <circle cx="329.282" cy="101.57" r="7.547" fill="#b3b3b3" style="" transform="matrix(1, 0, 0, 1, 0, 1.4210854715202004e-14)"/>
  <path d="M 329.283 111.4 C 322.485 111.4 318.237 104.042 321.635 98.155 C 325.034 92.268 333.53 92.268 336.93 98.155 C 337.705 99.497 338.112 101.019 338.112 102.569 C 338.107 107.444 334.158 111.395 329.283 111.4 Z M 329.283 96.305 C 324.46 96.305 321.446 101.526 323.857 105.702 C 326.268 109.878 332.296 109.878 334.708 105.702 C 335.258 104.75 335.547 103.67 335.547 102.569 C 335.543 99.112 332.74 96.309 329.283 96.305 Z" fill="#e6e6e6" style="" transform="matrix(1, 0, 0, 1, 0, 1.4210854715202004e-14)"/>
  <circle cx="263.154" cy="136.77" r="7.547" fill="#b3b3b3" style="" transform="matrix(1, 0, 0, 1, 0, 1.4210854715202004e-14)"/>
  <path d="M 263.154 145.6 C 256.357 145.6 252.108 138.242 255.507 132.355 C 258.906 126.468 267.403 126.468 270.801 132.355 C 271.576 133.697 271.984 135.219 271.985 136.77 C 271.979 141.645 268.029 145.595 263.154 145.6 Z M 263.154 130.505 C 258.332 130.505 255.318 135.726 257.729 139.903 C 260.14 144.078 266.169 144.078 268.579 139.903 C 269.13 138.95 269.419 137.87 269.419 136.77 C 269.416 133.312 266.613 130.509 263.154 130.505 Z" fill="#e6e6e6" style="" transform="matrix(1, 0, 0, 1, 0, 1.4210854715202004e-14)"/>
  <path d="M 38.487 235.944 L -54.328 380.419 C -55.617 382.428 -58.29 383.01 -60.299 381.721 L -60.302 381.72 L -305.555 224.161 C -305.731 224.051 -305.896 223.925 -306.05 223.786 C -307.673 222.38 -308.017 219.995 -306.856 218.187 L -214.041 73.714 C -212.752 71.705 -210.078 71.121 -208.069 72.411 L -208.067 72.413 L 37.187 229.97 C 39.195 231.259 39.778 233.934 38.489 235.941 L 38.487 235.944 Z" fill="#e6e6e6" style="" transform="matrix(1, 0, 0, 1, 0, 1.4210854715202004e-14)"/>
  <circle cx="-184.568" cy="163.782" r="37.929" fill="#f49e0b" style="" transform="matrix(1, 0, 0, 1, 0, 1.4210854715202004e-14)"/>
  <path d="M -147.674 326.406 L -304.218 225.838 C -304.416 225.715 -304.602 225.574 -304.774 225.416 L -148.347 144.735 C -144.151 142.525 -139.135 145.686 -139.319 150.424 C -139.32 150.46 -139.321 150.496 -139.324 150.532 L -144.923 268.516 L -145.189 274.164 L -147.674 326.406 Z" fill="#3f3d56" style="" transform="matrix(1, 0, 0, 1, 0, 1.4210854715202004e-14)"/>
  <polygon points="-147.675 326.406 -201.123 292.069 -150.402 270.814 -146.75 269.283 -144.924 268.516 -145.189 274.164 -147.675 326.406" opacity="0.2" style="isolation: isolate;" transform="matrix(1, 0, 0, 1, 0, 1.4210854715202004e-14)"/>
  <path d="M -60.511 382.402 L -195.91 295.419 L -145.189 274.164 L -141.537 272.631 L -75.44 244.93 C -71.107 243.115 -65.584 246.376 -64.776 250.913 C -64.723 251.221 -64.691 251.531 -64.679 251.843 L -60.511 382.402 Z" fill="#3f3d56" style="" transform="matrix(1, 0, 0, 1, 0, 1.4210854715202004e-14)"/>
  <path d="M 70.845 229.613 C 72.302 223.23 69.607 216.617 64.104 213.07 L -205.517 39.858 C -212.731 35.219 -222.341 37.312 -226.974 44.53 L -359.893 251.433 C -364.515 258.65 -362.427 268.246 -355.223 272.889 L -85.602 446.101 C -78.385 450.723 -68.789 448.633 -64.146 441.429 L 68.774 234.526 C 69.744 233.022 70.445 231.359 70.845 229.613 Z M -65.683 440.443 C -69.778 446.8 -78.247 448.644 -84.615 444.564 L -354.235 271.352 C -360.592 267.257 -362.437 258.788 -358.357 252.42 L -225.436 45.516 C -221.341 39.159 -212.872 37.316 -206.504 41.395 L 63.116 214.607 C 69.474 218.702 71.317 227.171 67.238 233.539 L -65.683 440.443 Z" fill="#3f3d56" style="" transform="matrix(1, 0, 0, 1, 0, 1.4210854715202004e-14)"/>
  <path d="M 61.972 295.246 C 59.747 289.087 53.905 284.979 47.358 284.97 L -273.106 284.97 C -281.683 284.966 -288.637 291.921 -288.633 300.497 L -288.633 546.418 C -288.622 554.988 -281.677 561.932 -273.106 561.945 L 47.358 561.945 C 55.928 561.932 62.872 554.988 62.885 546.418 L 62.885 300.497 C 62.888 298.707 62.578 296.93 61.972 295.246 Z" fill="#fff" style="" transform="matrix(1, 0, 0, 1, 0, 1.4210854715202004e-14)"/>
  <path d="M 61.972 295.246 C 59.747 289.087 53.905 284.979 47.358 284.97 L -273.106 284.97 C -281.683 284.966 -288.637 291.921 -288.633 300.497 L -288.633 546.418 C -288.622 554.988 -281.677 561.932 -273.106 561.945 L 47.358 561.945 C 55.928 561.932 62.872 554.988 62.885 546.418 L 62.885 300.497 C 62.888 298.707 62.578 296.93 61.972 295.246 Z M 61.058 546.418 C 61.049 553.98 54.92 560.109 47.358 560.118 L -273.106 560.118 C -280.67 560.109 -286.798 553.98 -286.807 546.418 L -286.807 300.497 C -286.798 292.935 -280.67 286.806 -273.106 286.797 L 47.358 286.797 C 54.92 286.806 61.049 292.935 61.058 300.497 L 61.058 546.418 Z" fill="#3f3d56" style="" transform="matrix(1, 0, 0, 1, 0, 1.4210854715202004e-14)"/>
  <path d="M 38.169 318.062 L 38.169 489.779 C 38.17 492.167 36.236 494.102 33.849 494.102 L -257.656 494.102 C -257.864 494.104 -258.072 494.088 -258.276 494.055 C -260.401 493.748 -261.981 491.927 -261.981 489.779 L -261.981 318.062 C -261.981 315.674 -260.046 313.738 -257.66 313.737 L 33.846 313.737 C 36.232 313.737 38.168 315.672 38.169 318.058 L 38.169 318.062 Z" fill="#e6e6e6" style="" transform="matrix(1, 0, 0, 1, 0, 1.4210854715202004e-14)"/>
  <circle cx="-188.5" cy="377.91" r="37.929" fill="#f49e0b" style="" transform="matrix(1, 0, 0, 1, 0, 1.4210854715202004e-14)"/>
  <path d="M -69.561 494.791 L -255.626 494.791 C -255.859 494.794 -256.091 494.776 -256.321 494.736 L -168.322 342.307 C -165.986 338.179 -160.056 338.127 -157.65 342.214 C -157.631 342.245 -157.613 342.276 -157.596 342.307 L -98.537 444.599 L -95.707 449.493 L -69.561 494.791 Z" fill="#3f3d56" style="" transform="matrix(1, 0, 0, 1, 0, 1.4210854715202004e-14)"/>
  <polygon points="-69.562 494.791 -133.089 494.791 -101.904 449.493 -99.659 446.231 -98.537 444.599 -95.708 449.493 -69.562 494.791" opacity="0.2" style="isolation: isolate;" transform="matrix(1, 0, 0, 1, 0, 1.4210854715202004e-14)"/>
  <path d="M 34.039 494.791 L -126.892 494.791 L -95.707 449.493 L -93.463 446.231 L -52.825 387.198 C -50.161 383.329 -43.752 383.088 -40.619 386.468 C -40.409 386.699 -40.214 386.943 -40.035 387.198 L 34.039 494.791 Z" fill="#3f3d56" style="" transform="matrix(1, 0, 0, 1, 0, 1.4210854715202004e-14)"/>
  <path d="M 61.972 295.246 C 59.747 289.087 53.905 284.979 47.358 284.97 L -273.106 284.97 C -281.683 284.966 -288.637 291.921 -288.633 300.497 L -288.633 546.418 C -288.622 554.988 -281.677 561.932 -273.106 561.945 L 47.358 561.945 C 55.928 561.932 62.872 554.988 62.885 546.418 L 62.885 300.497 C 62.888 298.707 62.578 296.93 61.972 295.246 Z M 61.058 546.418 C 61.049 553.98 54.92 560.109 47.358 560.118 L -273.106 560.118 C -280.67 560.109 -286.798 553.98 -286.807 546.418 L -286.807 300.497 C -286.798 292.935 -280.67 286.806 -273.106 286.797 L 47.358 286.797 C 54.92 286.806 61.049 292.935 61.058 300.497 L 61.058 546.418 Z" fill="#3f3d56" style="" transform="matrix(1, 0, 0, 1, 0, 1.4210854715202004e-14)"/>
</svg>